<?xml version="1.0" encoding="utf-8"?>
<!-- Generator: Adobe Illustrator 27.5.0, SVG Export Plug-In . SVG Version: 6.00 Build 0)  -->
<svg version="1.1" id="Layer_1" xmlns="http://www.w3.org/2000/svg" xmlns:xlink="http://www.w3.org/1999/xlink" x="0px" y="0px"
	 viewBox="0 0 128.1 72" style="enable-background:new 0 0 128.1 72;" xml:space="preserve">
<style type="text/css">
	.st0{fill:#FFFFFF;}
	.st1{fill:#BF0D3E;}
	.st2{fill:#041E42;}
</style>
<path class="st0" d="M117.4,0H10.7C7.8,0,5.1,1.1,3.1,3.1c-2,2-3.1,4.8-3.1,7.6v47.6c0,2.8,1.1,5.6,3.1,7.6c2,2,4.7,3.1,7.6,3.1
	h106.8c5.9,0,10.7-4.8,10.7-10.7V10.7c0-5.9-4.7-10.6-10.5-10.7C117.5,0,117.5,0,117.4,0z"/>
<path class="st1" d="M124.3,10.7c0-3.8-3-6.9-6.8-6.9c0,0-0.1,0-0.1,0H87.6l17.1,28.6l1.6,0.2l1,1.3v1.2l1.1,0.2l1,1.4v1.2l1.1,0.2
	l1.1,1.2V42c1.3,1.2,2.9,2.2,4.5,3c1.5,0.6,1.7,3,2.6,4.3c1.1,1.9,2.7,2.6,2.4,3.7c-0.8,2.8-3.6,7.5-6.3,7.8h-10.6v4.5h13.3
	c3.8,0,6.9-3.1,6.9-7c0,0,0,0,0,0L124.3,10.7"/>
<path class="st2" d="M51.3,60.8h-5.1c0-12.8,4.3-19.9,9.5-21.3c0.7-0.1,0.4-3.6-0.5-4.7h-3c-0.5,0-0.2-0.9-0.2-0.9l2.4-5.2l-0.3-1.4
	h-9l7.4-5.2c0.3-13.6,14.3-14.7,22.7-9c5,3.3,5.4,9.9,5,14.4c-0.1,0.3-1.3,0.1-1.3,0.1s-0.8,5,1.4,5h9.8c4-0.2,7.9,2.5,7.9,2.5
	l0.9-3.4l-21.5-28H10.7c-1.8,0-3.6,0.7-4.9,2c-1.3,1.3-2,3.1-2,4.9v47.7c0,1.8,0.7,3.6,2,4.9c1.3,1.3,3.1,2,4.9,2.1H54
	C52.9,63.5,51.7,61.4,51.3,60.8"/>
<path class="st0" d="M13.4,50.7c0-2.6,2.1-4.7,4.7-4.7c2.6,0,4.7,2.1,4.7,4.7c0,2.6-2.1,4.7-4.7,4.7c0,0,0,0,0,0
	C15.5,55.4,13.4,53.4,13.4,50.7C13.4,50.7,13.4,50.7,13.4,50.7 M127.2,69.7c0-0.5-0.3-0.6-0.8-0.6h-1v2h0.4v-0.8h0.3l0.5,0.8h0.5
	l-0.5-0.8C126.9,70.3,127.1,70.1,127.2,69.7C127.1,69.7,127.1,69.7,127.2,69.7 M126.4,69.9h-0.6v-0.5h0.5c0.2,0,0.4,0,0.4,0.2
	S126.6,69.9,126.4,69.9"/>
<path class="st0" d="M126.2,68.2c-1.1,0-1.9,0.9-1.9,1.9s0.9,1.9,1.9,1.9c1.1,0,1.9-0.9,1.9-1.9C128.2,69,127.3,68.2,126.2,68.2
	C126.3,68.1,126.2,68.1,126.2,68.2 M126.2,71.6c-0.8,0-1.5-0.7-1.5-1.5s0.7-1.5,1.5-1.5s1.5,0.7,1.5,1.5S127.1,71.6,126.2,71.6"/>
</svg>
